<?xml version="1.0" encoding="UTF-8"?>
<!DOCTYPE svg PUBLIC "-//W3C//DTD SVG 1.1//EN" "http://www.w3.org/Graphics/SVG/1.1/DTD/svg11.dtd">
<!-- Creator: CorelDRAW -->
<svg xmlns="http://www.w3.org/2000/svg" xml:space="preserve" width="34.1148mm" height="6.4208mm" version="1.1" style="shape-rendering:geometricPrecision; text-rendering:geometricPrecision; image-rendering:optimizeQuality; fill-rule:evenodd; clip-rule:evenodd"
viewBox="0 0 3714.64 699.14"
 xmlns:xlink="http://www.w3.org/1999/xlink"
 xmlns:xodm="http://www.corel.com/coreldraw/odm/2003">
 <defs>
  <style type="text/css">
   <![CDATA[
    .fil13 {fill:#2B2A29}
    .fil5 {fill:#078CA8}
    .fil9 {fill:#0D83C3}
    .fil0 {fill:#1171B2}
    .fil20 {fill:#1273BA}
    .fil4 {fill:#1BB5D6}
    .fil10 {fill:#5AE4E9}
    .fil19 {fill:#6FC7E5}
    .fil15 {fill:#84F3EC}
    .fil14 {fill:#CB1854}
    .fil12 {fill:#DB265A}
    .fil11 {fill:#E93B39}
    .fil2 {fill:#EA4B26}
    .fil1 {fill:#F25846}
    .fil3 {fill:#F66616}
    .fil17 {fill:#F6D2CE}
    .fil18 {fill:#FA8B25}
    .fil7 {fill:#FD9A1D}
    .fil16 {fill:#FDAC3D}
    .fil6 {fill:#FEB63B}
    .fil8 {fill:#FFCC74}
   ]]>
  </style>
 </defs>
 <g id="Katman_x0020_1">
  <metadata id="CorelCorpID_0Corel-Layer"/>
  <path class="fil0" d="M1889.08 424.36l-2.59 -185.64c76.32,-2.29 131.91,8.41 131.81,91.69 -0.1,86.22 -48.45,100.3 -129.22,93.95zm-67.29 54.68c43.71,8.14 154.23,4.11 190.29,-13.95 43.86,-21.96 72.63,-69.08 72.17,-134.65 -1.03,-146.06 -124.72,-158.68 -260.9,-146.5l-1.56 295.09 0 0z"/>
  <path class="fil0" d="M2656.03 517.91l-3.52 49.39c95.58,19.07 107.93,-41.69 132.99,-112.39 20.45,-57.66 53.87,-134.25 68.17,-191.49l-64.6 5.35 -10.36 30.21c-3.76,12.6 -7.04,23.49 -11.01,37.17 -6.48,22.31 -12.62,56.82 -23.21,72.81l-48.64 -145.85 -64.24 0.12c11.92,47.3 35.31,99.96 52.41,145.27 20.26,53.75 59.19,112.6 -27.99,109.42l0 0z"/>
  <path class="fil0" d="M2484.49 435.76c-24.16,-45.36 29.43,-48.63 69.14,-54.58 -0.34,47.84 -19.92,69.65 -69.14,54.58zm-59.85 -105.72l55.79 1.24c10.67,-19.02 10.31,-28.68 39.57,-28.25 27.96,0.41 32.72,11.87 32.12,38.26 -60.64,17.13 -140.19,6.61 -135.27,86.06 3.59,57.89 82.76,80.8 138.39,31.91l6.95 21.04 56.25 -0.62c-12.54,-93.88 13.25,-177.38 -35.28,-207.94 -25.96,-16.34 -71.43,-18.45 -104.32,-8.83 -34.5,10.09 -49.16,29.8 -54.2,67.12l0 0z"/>
  <path class="fil1" d="M405.08 371.02c3.08,-7.01 44.16,-52.98 50.86,-57.99 15.97,-11.93 44.75,-33.91 51.67,-48.62l6.26 -16.04c-18.36,1.55 -60.64,-3.13 -88.91,-1.57 -29.32,1.62 -48.05,0.78 -73.23,-10.81 -0.96,-0.45 -2.85,-0.38 -3.55,-2.09 -0.7,-1.74 -2.49,-1.31 -3.52,-2.25 -27.2,-0.59 -55.26,0.08 -82.55,0.37 -22.89,0.24 -66.36,-7.76 -75.4,11.59 -36.88,78.82 197.22,-1.72 193.6,60.06 -1.64,28.05 -38.18,21.25 -65.38,21.48 -40.72,0.34 -139.09,-8.63 -169.63,2.5 -15.26,17.56 -11.52,29.25 1.46,39.49 22.35,11.5 216.14,4.16 258.31,3.88l0 0z"/>
  <path class="fil0" d="M2938.16 289.16l-7.47 -22.76c-0.32,-0.96 -0.69,-2.61 -1.34,-3.79l-54.81 -0.42 1.36 218.68 61.48 -0.42c-0.76,-80.25 -14.97,-169.62 40.64,-171.83 57.21,-2.26 40.8,82.05 40.59,170.9l61.96 1.76c1.92,-104.97 21.8,-220.76 -71.82,-223.97 -40.38,-1.38 -50.6,12 -70.58,31.87l0 -0.01z"/>
  <path class="fil2" d="M344.67 231.65c1.02,0.95 2.82,0.5 3.52,2.24 0.7,1.72 2.59,1.66 3.55,2.09 25.17,11.6 43.9,12.43 73.23,10.82 28.27,-1.56 70.55,3.11 88.91,1.56l-6.26 16.05c-2.68,7.51 -7.27,11.06 7.32,28.41l11.06 6.34c0.14,-0.24 0.74,-1.48 0.94,-1.79l4.75 -5.79c0.5,-0.65 1.44,-1.69 1.96,-2.4l3.69 -5.42c16.8,-26 -8.34,6.62 4.85,-8.53l-2.25 -57.43 -53.26 -50.29c-34.83,-33.07 -15.7,-26.56 -79.29,-26.09 -68.82,0.51 -138,0.04 -206.87,0.08 -25.04,0.01 -79.89,-10 -87.29,14.56 -19.56,64.93 198.14,6.75 273.75,36.02 13.47,39.07 -5.69,40.52 -42.28,39.57l0 0z"/>
  <path class="fil0" d="M2219.25 312.26l93.39 0.49 -87.64 109.91c-15.68,17.96 -10.86,30.24 -10.92,58.44l185.83 -0.29 -0.57 -47.2 -103.49 -2.24 57.15 -74.34c33.59,-40.82 40.55,-26.49 41.47,-93.85l-175.87 0.09 0.64 49 0 0z"/>
  <path class="fil3" d="M847.07 327.32c-8.04,-12.67 -4.25,-6.54 -19.89,-15.58l-62.96 -38.72c-6.52,-4.9 -4.34,-3.36 -8.1,-6.83l-1.17 -4.87c-19.64,-7.24 -135.84,-79.36 -143.85,-89.42 -28.39,-9.44 -105.83,-67.6 -115.72,-70.84 -24.02,-7.86 -8.2,-7.47 -14.24,2.03l68.83 62.77c44.59,37.5 30.9,34.29 33.3,104.1 23.53,7 25.34,19.5 47.41,35.25 18.16,12.96 23.17,29.05 53.66,30.27 30.93,1.23 145.32,3.97 162.73,-8.16l0.01 0z"/>
  <path class="fil4" d="M609 532.47l-19.83 131.97c-7.81,41.56 -10.37,31.03 -22.71,31.27 26.96,15.29 78.17,-24.77 97.18,-37.74 15.07,-37.39 35.18,-74.71 51.97,-111.82 13.23,-29.21 30.03,-93.27 57.05,-109.42 2.96,-9.16 2.15,-5.84 14.56,-12.85 8.78,-4.98 14.95,-8.25 22.7,-12.74 15.1,-8.72 29.6,-15.45 45.82,-20.85 -24.79,-25.77 -43.3,-16.35 -89.11,-16.07 -3.03,10.54 -1.37,5.4 -5.41,10.68 -3.79,4.95 -7.12,7.13 -9.93,9.17 -5.55,4.02 -12.82,8.18 -18.24,11.2 13.93,9.44 18.71,21.7 24.28,38.12 -16.14,-2.3 -13.58,-0.85 -26.86,-9.87 -5.52,-3.75 -14.73,-15.65 -6.22,-6.27 -28.57,18.52 -22.55,44.71 -44.89,60.12 -10.43,7.19 -26.49,15.35 -36.89,21.07 -15.28,8.4 -25.09,18.82 -33.46,24.02l0 0z"/>
  <path class="fil5" d="M495.11 585.19c4.62,5.96 40.6,-17.3 50.24,-24.25 13.13,-9.47 47.23,-25.56 63.66,-28.47 8.37,-5.2 18.18,-15.61 33.46,-24.02 10.4,-5.72 26.46,-13.88 36.89,-21.07 22.34,-15.41 16.32,-41.61 44.88,-60.12 -8.51,-9.38 0.71,2.53 6.22,6.27 13.3,9.02 10.75,7.57 26.87,9.87 -5.57,-16.43 -10.36,-28.68 -24.28,-38.12 5.42,-3.02 12.69,-7.19 18.24,-11.2 2.81,-2.04 6.14,-4.21 9.93,-9.17 4.04,-5.28 2.38,-0.14 5.41,-10.69 -129.11,-0.93 -88.59,-13.16 -145.7,37.64 -11.31,10.07 -24.27,15.23 -36.35,23.12 -2.3,67.54 3.52,72.62 -78.27,135.68 -10.49,8.09 -10.32,3.63 -11.2,14.54l0 0z"/>
  <path class="fil6" d="M611.1 171.91c8.01,10.06 124.21,82.19 143.85,89.42 -12.75,-33.45 -32.21,-76.08 -46.73,-108.06 -17.15,-37.76 -35.77,-68.1 -48.45,-109.42 -8.5,-11.66 -48.18,-35.56 -65.94,-40.8 -29.13,-8.57 -30.9,3.66 -31.12,3.87l18.51 0.11 29.89 164.89 0 0z"/>
  <path class="fil7" d="M481.14 103.09c6.04,-9.49 -9.77,-9.89 14.24,-2.01 9.9,3.23 87.34,61.39 115.72,70.83l-29.89 -164.88 -18.51 -0.11c-10.1,1.66 -10.3,1.35 -23.36,15.37 -47.56,51.12 -35.62,33.09 -162.98,33.65 -35.75,0.16 -46.57,3.8 -40.06,38.27 35.8,16.19 98.95,5.41 144.83,8.87l0 0z"/>
  <path class="fil8" d="M754.95 261.33l1.17 4.87c23.57,-9.64 42.04,-27.92 60.45,-41.59 11.27,-8.37 17.84,-13.04 27.85,-20.44 15.9,-11.72 12.02,-16.87 30.01,-16.94 -22.21,-26.33 -73.14,-52.41 -104.69,-74.04 -18.92,-12.98 -34.55,-21.97 -53.63,-34.27 -14.48,-9.32 -40.3,-28.29 -56.36,-35.06 12.69,41.31 31.32,71.66 48.47,109.42 14.51,31.98 33.98,74.61 46.72,108.06l0.01 0z"/>
  <path class="fil9" d="M495.11 585.19c-46.31,25.96 -134.71,-19.63 -114.45,49.83 31.73,15.81 76.82,1.88 114.69,7.47 34.75,5.12 35.26,45.08 71.11,53.22 12.34,-0.24 14.91,10.29 22.71,-31.27l19.83 -131.97c-16.42,2.92 -50.52,19 -63.66,28.47 -9.64,6.96 -45.62,30.21 -50.24,24.25l0 0z"/>
  <path class="fil10" d="M663.64 657.97c70.44,-42.1 135.8,-86.3 202.49,-127.32 -6.26,-16.52 1.49,-3.78 -10.36,-15.06l-89.48 -65.88 6.37 -12.98c-27.01,16.15 -43.83,80.21 -57.05,109.43 -16.79,37.1 -36.9,74.41 -51.97,111.8l0 0z"/>
  <path class="fil11" d="M405.08 371.02c26.79,1.19 30.54,6.48 28.84,34.41 5.19,21.68 -3.24,26.4 30.66,30.19 0.34,-0.57 0.45,-2.38 0.54,-1.89l1.67 -3.78c16.18,-20.06 23.66,6.6 56.54,21.53 15.54,-43.64 25.5,-126.92 18.84,-176.24 -13.2,15.16 11.96,-17.48 -4.85,8.54l-3.7 5.41c-0.51,0.71 -1.45,1.74 -1.95,2.4l-4.75 5.79c-0.21,0.3 -0.79,1.55 -0.94,1.79l-11.06 -6.34c-14.6,-17.35 -10,-20.88 -7.33,-28.41 -6.9,14.71 -35.68,36.68 -51.67,48.62 -6.7,5.01 -47.77,50.98 -50.86,57.98l0 0.01z"/>
  <path class="fil12" d="M542.18 275.23c6.66,49.33 -3.31,132.59 -18.84,176.23 -32.88,-14.93 -40.36,-41.58 -56.54,-21.53l-1.67 3.78c-0.1,-0.49 -0.21,1.34 -0.56,1.89 -33.9,-3.78 -25.47,-8.51 -30.66,-30.19 -22.54,19.64 -79.56,11.9 -117.18,11.69l-20.44 45.92c45.31,1.54 99.25,-13.87 96.3,34.24 24.92,-1.14 50.27,-7.91 71.49,-8.16 19,-0.22 48.45,2.37 72.54,2.68 8.12,-13.99 9.67,-258.46 3.29,-274.01l2.26 57.44 0 0.01z"/>
  <path class="fil13" d="M1370.41 371.49c7.13,111.94 -85.92,93.05 -101.36,78.8 -23.11,-21.32 -8.83,-52.44 14.34,-62.52 20.62,-8.97 61.67,-12.99 87.02,-16.28zm-125.36 -38.67c31.96,-0.21 15.17,-0.78 30.39,-23.44 8.13,-12.12 20.15,-18.67 38.56,-19.87 41.34,-2.7 62.61,20.11 54.49,59.36 -13.7,20.62 -142,-5.26 -133.4,82.35 5.28,53.68 69.4,61.37 106.36,41.04 19.89,-10.95 14.92,-15.57 29.82,-26.19 5.96,16.88 -3.62,23.48 13.21,30.81 10.67,-7.47 6.22,2.49 8.2,-18.47 3.83,-40.44 6.08,-149.22 -17.92,-171.13 -41.94,-38.31 -139.92,-12.91 -129.71,45.53l0 0z"/>
  <path class="fil13" d="M1045.56 477.99c19.55,-3.27 16.23,13.65 14.99,-50.71 -1.07,-55.95 -11,-129.06 51.21,-137.3 91.04,-12.06 58.31,118.04 63.91,187.63l21.13 0.39c2.24,-41.34 5.5,-148.64 -9.75,-179.05 -22.46,-44.82 -103.19,-36.4 -126.29,7.32l-0.25 -118.62c-28.79,0.88 -22.99,-9.83 -22.99,59.16l0.41 215.77c3.11,19.04 -3.8,6.63 7.61,15.41l0 0z"/>
  <polygon class="fil0" points="2122.13,481.08 2182.78,480.73 2182.77,262.95 2122.56,263.14 "/>
  <path class="fil14" d="M392.59 497.28c-22.87,29.46 -82.5,-0.61 -103.28,19.25 -15.88,15.19 -5.23,34.85 10.79,39.25 5.8,1.6 159.42,6.71 173.83,-4.79l62.7 -59.19c-24.09,-0.3 -53.54,-2.9 -72.54,-2.68 -21.22,0.25 -46.57,7.01 -71.49,8.16l0 0z"/>
  <path class="fil13" d="M1431.99 282.04c5.39,17.03 -10.86,10.93 22.31,11.98l95.09 -0.98c-14.97,40.35 -124.76,139.43 -119.29,185.51l131.07 1.14c25.94,-0.44 23.05,2.86 21.86,-21.45l-126.84 0.69c4.93,-12.52 21.94,-32.89 30.62,-43.85l65.94 -88.03c26.81,-36.55 28.97,-24.66 26.08,-54.43l-132.84 0.4c-14.62,2.91 -6.08,0.52 -14,9.03l0 0z"/>
  <path class="fil13" d="M3615.97 351.21c-29.11,-36.57 -55.12,-39.48 -89.09,-4.32 -5.65,-21.79 6.33,-14.05 -12.14,-19.98 -12.85,12.78 -6.18,140.63 -5.24,143.81 3.56,12.06 -1.74,2.12 5.24,10.47 12.92,-5.5 7.06,0.17 10.33,-14.11l0.69 -70.4c0.72,-29.32 5.72,-55.48 37.76,-57.62 46.96,-3.16 39.57,57.58 37.96,101.49 -2,54.66 -2.05,35.87 10.09,40.68 14.31,-10.4 5.27,-47.08 6.62,-84.98 1.07,-30.16 9.65,-54.93 37.74,-57.44 59.34,-5.31 36.03,71.39 40.55,124.01 1.89,22.07 -3.24,10.77 7.52,18.25 12.21,-5.44 4.8,1.87 8.98,-10.33 1.03,-3.02 1.34,-13.04 1.35,-16.63 0.11,-27.98 2.09,-86.97 -6.02,-106.07 -6.94,-16.34 -22.55,-26.32 -47.57,-25 -29.28,1.56 -31.28,13.32 -44.77,28.16l0 0z"/>
  <path class="fil15" d="M772.66 436.73l-6.37 12.98 89.48 65.87c11.85,11.28 4.09,-1.46 10.36,15.07 10.08,-6.75 13.55,-11.26 15.92,-28.84 1.77,-13.15 0.9,-30.18 0.89,-43.75 -0.05,-40.75 1.66,-53.27 -27.21,-67.76 -16.21,5.4 -30.71,12.12 -45.81,20.84 -7.76,4.49 -13.93,7.77 -22.71,12.74 -12.4,7.02 -11.59,3.69 -14.55,12.85l0 0.01z"/>
  <path class="fil16" d="M756.12 266.19c3.76,3.46 1.58,1.93 8.1,6.83l62.96 38.72c15.65,9.04 11.86,2.91 19.89,15.58 11.38,-6.24 1.89,0.22 13.79,-10.01 1.33,-1.14 10.66,-10.34 11.08,-10.9 13.47,-17.27 12.88,-102.92 2.49,-119.2 -17.99,0.08 -14.11,5.23 -30.01,16.95 -10.03,7.38 -16.58,12.06 -27.85,20.43 -18.42,13.68 -36.88,31.97 -60.45,41.59l0 0z"/>
  <path class="fil17" d="M73.62 512.22l-0.08 40.69c130.95,4.06 182.59,24.88 166.3,-41.99 -38.68,-12.77 -121.54,-0.22 -166.23,1.3l0 0z"/>
  <path class="fil13" d="M3383.98 342.75c74.92,-32.12 100.74,99.63 37.66,123.7 -37.69,14.37 -63.42,-10.26 -70.96,-42.22 -9.6,-40.7 5.61,-69.61 33.3,-81.48l0 0zm-10.14 -13.76c-80.77,33.47 -46.49,189.77 56.53,150.58 83.08,-31.61 45.34,-192.81 -56.53,-150.58z"/>
  <path class="fil13" d="M3303.48 430.28c-23.6,7.68 -17.66,47.81 -69.85,36.83 -52.92,-11.15 -58.67,-119.44 4.32,-128.14 16.82,-2.32 33.46,2.16 41.43,11.2 16.64,18.89 -2.22,23.17 30.5,24.54 -10.71,-74.59 -136.43,-74.34 -135.62,30.59 1,129.6 157.9,71.09 129.22,24.98l0 0z"/>
  <path class="fil13" d="M1717.98 309.53c-4.42,-46.42 7.37,-36.59 -12.05,-36.77 -22.11,-0.21 -6.95,0.52 -10.19,8.55l-1.38 168.33c-0.1,32.12 5.79,26.93 11.42,29.66 11.9,-5.75 13.26,-0.62 12.05,-43.2 -2.37,-83.81 -10.36,-128.63 55.31,-143.92 23.08,-5.38 13.97,7.53 16.91,-10.73 5.2,-32.37 -70.45,2.52 -72.06,28.07l-0.01 0z"/>
  <path class="fil13" d="M1619.59 326.05l0.71 151.19 21.45 1c0.49,-31.82 5.97,-183.93 -1.99,-205.19l-17.62 -0.47c-5.34,14.09 -2.53,36.57 -2.55,53.46l0 0z"/>
  <path class="fil18" d="M248.91 101.17c21.85,-0.02 47.41,1.49 44.55,-25.46 -2.6,-24.53 -29.72,-20.15 -53.35,-20.2 -25.48,-0.05 -58.86,-5.15 -52.59,27.59 4.8,25.1 38.89,18.14 61.4,18.05l0 0.01z"/>
  <path class="fil19" d="M239.27 638.08c27.04,0.85 92.63,16.71 97.59,-18.04 5.87,-41.01 -61.24,-26.39 -89.89,-25.65 1.22,24.23 5.59,30.77 -7.71,43.7l0 0z"/>
  <path class="fil17" d="M5.1 143.66c-6.78,12.18 -4.95,28.47 -4.58,41.45 25.05,0.78 77.67,12.18 77.14,-21.54 -0.56,-34.57 -53.07,-24.99 -72.55,-19.92l0 0z"/>
  <polygon class="fil20" points="2121.74,230.75 2180.61,232.09 2182.47,176.65 2122.24,177.78 "/>
 </g>
</svg>
