<?xml version="1.0" encoding="UTF-8"?>
<!DOCTYPE svg PUBLIC "-//W3C//DTD SVG 1.1//EN" "http://www.w3.org/Graphics/SVG/1.1/DTD/svg11.dtd">
<!-- Creator: CorelDRAW -->
<svg xmlns="http://www.w3.org/2000/svg" xml:space="preserve" width="297.733mm" height="56.0358mm" version="1.1" style="shape-rendering:geometricPrecision; text-rendering:geometricPrecision; image-rendering:optimizeQuality; fill-rule:evenodd; clip-rule:evenodd"
viewBox="0 0 10572.79 1989.89"
 xmlns:xlink="http://www.w3.org/1999/xlink"
 xmlns:xodm="http://www.corel.com/coreldraw/odm/2003">
 <defs>
  <style type="text/css">
   <![CDATA[
    .fil6 {fill:#078CA8}
    .fil10 {fill:#0D83C3}
    .fil0 {fill:#1171B2}
    .fil26 {fill:#1273BA}
    .fil4 {fill:#1BB5D6}
    .fil11 {fill:#5AE4E9}
    .fil24 {fill:#6FC7E5}
    .fil19 {fill:#84F3EC}
    .fil15 {fill:#A2A3A4}
    .fil14 {fill:#A2A5A6}
    .fil17 {fill:#A4A6A9}
    .fil18 {fill:#A5A6A6}
    .fil22 {fill:#AAABAC}
    .fil16 {fill:#CB1854}
    .fil13 {fill:#DB265A}
    .fil12 {fill:#E93B39}
    .fil2 {fill:#EA4B26}
    .fil1 {fill:#F25846}
    .fil3 {fill:#F66616}
    .fil21 {fill:#F6D2CE}
    .fil23 {fill:#FA8B25}
    .fil25 {fill:#FAFDFE}
    .fil8 {fill:#FD9A1D}
    .fil20 {fill:#FDAC3D}
    .fil5 {fill:#FDFDFD}
    .fil7 {fill:#FEB63B}
    .fil9 {fill:#FFCC74}
   ]]>
  </style>
 </defs>
 <g id="Katman_x0020_1">
  <metadata id="CorelCorpID_0Corel-Layer"/>
  <g id="_3233843645152">
   <path class="fil0" d="M5376.8 1207.84l-7.38 -528.4c217.23,-6.49 375.44,23.93 375.16,260.98 -0.29,245.4 -137.91,285.46 -367.78,267.42zm-191.54 155.63c124.42,23.18 438.97,11.68 541.62,-39.71 124.85,-62.5 206.71,-196.61 205.4,-383.23 -2.92,-415.73 -354.97,-451.65 -742.58,-416.99l-4.44 839.93z"/>
   <path class="fil0" d="M7559.7 1474.07l-9.99 140.59c272.03,54.26 307.2,-118.67 378.54,-319.89 58.19,-164.12 153.3,-382.12 194.02,-545.03l-183.88 15.2 -29.47 85.99c-10.68,35.84 -20.03,66.84 -31.33,105.79 -18.42,63.53 -35.91,161.72 -66.06,207.25l-138.44 -415.14 -182.86 0.35c33.94,134.63 100.52,284.51 149.15,413.47 57.68,152.97 168.47,320.49 -79.68,311.44z"/>
   <path class="fil0" d="M7071.48 1240.27c-68.78,-129.12 83.75,-138.4 196.79,-155.36 -0.97,136.18 -56.69,198.25 -196.79,155.36zm-170.38 -300.9l158.79 3.53c30.39,-54.14 29.38,-81.64 112.64,-80.4 79.58,1.18 93.13,33.81 91.42,108.92 -172.58,48.74 -399.03,18.8 -385.01,244.95 10.22,164.8 235.56,229.99 393.92,90.85l19.77 59.88 160.1 -1.76c-35.72,-267.23 37.7,-504.87 -100.42,-591.87 -73.88,-46.53 -203.31,-52.5 -296.92,-25.12 -98.19,28.71 -139.95,84.8 -154.28,191.03z"/>
   <path class="fil1" d="M1152.92 1055.98c8.79,-19.94 125.71,-150.8 144.77,-165.04 45.48,-33.98 127.38,-96.51 147.05,-138.39l17.83 -45.66c-52.25,4.41 -172.6,-8.87 -253.04,-4.44 -83.47,4.59 -136.77,2.21 -208.41,-30.79 -2.74,-1.26 -8.14,-1.07 -10.11,-5.96 -2,-4.95 -7.11,-3.71 -10.02,-6.4 -77.42,-1.68 -157.29,0.22 -234.96,1.05 -65.13,0.69 -188.86,-22.11 -214.62,32.96 -104.96,224.37 561.35,-4.88 551.05,170.96 -4.68,79.83 -108.67,60.51 -186.06,61.16 -115.93,0.96 -395.9,-24.59 -482.85,7.12 -43.41,49.99 -32.77,83.23 4.17,112.4 63.61,32.72 615.2,11.84 735.21,11.04z"/>
   <path class="fil0" d="M8362.74 823.01l-21.25 -64.8c-0.91,-2.71 -1.97,-7.43 -3.81,-10.76l-156.01 -1.23 3.87 622.41 174.97 -1.2c-2.16,-228.42 -42.61,-482.79 115.67,-489.07 162.83,-6.47 116.11,233.52 115.52,486.41l176.37 5.03c5.43,-298.77 62.04,-628.34 -204.44,-637.47 -114.9,-3.94 -144,34.14 -200.89,90.69z"/>
   <path class="fil2" d="M980.99 659.29c2.91,2.69 8.02,1.45 10.02,6.4 1.97,4.89 7.37,4.69 10.11,5.96 71.64,33 124.94,35.38 208.41,30.79 80.44,-4.43 200.79,8.85 253.04,4.44l-17.83 45.66c-7.6,21.41 -20.7,31.49 20.85,80.88l31.49 18.03c0.4,-0.69 2.08,-4.23 2.65,-5.09l13.53 -16.48c1.42,-1.86 4.08,-4.81 5.55,-6.81l10.52 -15.43c47.83,-74.03 -23.75,18.84 13.8,-24.28l-6.43 -163.46 -151.56 -143.14c-99.16,-94.13 -44.7,-75.59 -225.7,-74.25 -195.87,1.45 -392.8,0.11 -588.8,0.21 -71.3,0.04 -227.41,-28.45 -248.47,41.44 -55.67,184.79 563.95,19.2 779.16,102.51 38.34,111.21 -16.21,115.33 -120.34,112.63z"/>
   <path class="fil0" d="M6316.53 888.75l265.81 1.41 -249.45 312.83c-44.61,51.1 -30.89,86.06 -31.07,166.32l528.91 -0.83 -1.61 -134.33 -294.56 -6.4 162.69 -211.57c95.6,-116.2 115.4,-75.41 118.02,-267.12l-500.58 0.25 1.84 139.46z"/>
   <path class="fil3" d="M2410.95 931.62c-22.86,-36.06 -12.08,-18.63 -56.62,-44.35l-179.2 -110.2c-18.54,-13.94 -12.34,-9.57 -23.05,-19.43l-3.32 -13.86c-55.9,-20.6 -386.61,-225.86 -409.42,-254.51 -80.79,-26.87 -301.23,-192.38 -329.4,-201.61 -68.34,-22.38 -23.32,-21.29 -40.52,5.74l195.91 178.69c126.89,106.73 87.95,97.58 94.75,296.27 66.98,19.92 72.12,55.52 134.94,100.33 51.69,36.87 65.97,82.67 152.73,86.14 88.06,3.52 413.63,11.34 463.19,-23.21z"/>
   <path class="fil4" d="M1733.35 1515.5l-56.44 375.64c-22.22,118.28 -29.51,88.32 -64.63,88.99 76.73,43.52 222.47,-70.48 276.59,-107.41 42.9,-106.42 100.15,-212.63 147.94,-318.24 37.63,-83.17 85.46,-265.49 162.35,-311.45 8.43,-26.07 6.12,-16.6 41.43,-36.58 25,-14.14 42.55,-23.49 64.63,-36.25 42.99,-24.84 84.24,-43.97 130.4,-59.34 -70.56,-73.37 -123.25,-46.57 -253.63,-45.77 -8.61,30.02 -3.91,15.39 -15.4,30.41 -10.79,14.1 -20.26,20.31 -28.25,26.09 -15.82,11.44 -36.48,23.3 -51.93,31.9 39.64,26.88 53.25,61.76 69.12,108.5 -45.92,-6.53 -38.65,-2.41 -76.47,-28.07 -15.71,-10.66 -41.93,-44.53 -17.7,-17.86 -81.32,52.71 -64.16,127.25 -127.76,171.1 -29.68,20.46 -75.4,43.71 -105,59.99 -43.48,23.9 -71.41,53.56 -95.24,68.36z"/>
   <path class="fil5" d="M5376.8 1207.84c229.87,18.04 367.5,-22.03 367.78,-267.42 0.28,-237.05 -157.93,-267.47 -375.16,-260.98l7.38 528.4z"/>
   <path class="fil6" d="M1409.17 1665.58c13.16,16.95 115.58,-49.24 143.01,-69.02 37.38,-26.97 134.45,-72.74 181.17,-81.05 23.83,-14.8 51.76,-44.45 95.24,-68.36 29.61,-16.27 75.32,-39.52 105,-59.99 63.59,-43.85 46.44,-118.39 127.76,-171.1 -24.24,-26.67 1.99,7.2 17.7,17.86 37.82,25.66 30.56,21.54 76.47,28.07 -15.87,-46.75 -29.48,-81.62 -69.12,-108.5 15.45,-8.59 36.1,-20.45 51.93,-31.9 7.99,-5.78 17.46,-11.99 28.25,-26.09 11.49,-15.02 6.79,-0.39 15.4,-30.41 -367.45,-2.64 -252.14,-37.47 -414.69,107.14 -32.19,28.64 -69.09,43.34 -103.46,65.77 -6.52,192.24 10.01,206.69 -222.76,386.2 -29.85,23.03 -29.37,10.31 -31.9,41.38z"/>
   <path class="fil7" d="M1739.34 489.27c22.81,28.65 353.52,233.92 409.42,254.51 -36.27,-95.2 -91.67,-216.53 -133.01,-307.55 -48.82,-107.48 -101.82,-193.85 -137.92,-311.44 -24.21,-33.2 -137.12,-101.24 -187.68,-116.13 -82.9,-24.41 -87.96,10.41 -88.57,11l52.68 0.31 85.08 469.29z"/>
   <path class="fil8" d="M1369.42 293.4c17.2,-27.03 -27.82,-28.12 40.52,-5.74 28.17,9.23 248.61,174.74 329.4,201.61l-85.08 -469.29 -52.68 -0.31c-28.77,4.73 -29.33,3.85 -66.47,43.77 -135.4,145.52 -101.4,94.18 -463.89,95.78 -101.76,0.45 -132.56,10.82 -114.03,108.93 101.91,46.08 281.63,15.39 412.22,25.25z"/>
   <path class="fil9" d="M2148.76 743.78l3.32 13.86c67.09,-27.42 119.65,-79.46 172.08,-118.4 32.06,-23.81 50.74,-37.11 79.26,-58.15 45.25,-33.36 34.22,-48.03 85.42,-48.23 -63.23,-74.95 -208.18,-149.17 -297.98,-210.74 -53.88,-36.94 -98.33,-62.54 -152.65,-97.53 -41.21,-26.55 -114.68,-80.53 -160.39,-99.8 36.1,117.58 89.11,203.95 137.92,311.44 41.34,91.02 96.74,212.35 133.01,307.55z"/>
   <path class="fil10" d="M1409.17 1665.58c-131.79,73.88 -383.44,-55.88 -325.75,141.82 90.31,44.99 218.66,5.36 326.43,21.25 98.89,14.58 100.36,128.31 202.42,151.49 35.12,-0.67 42.41,29.29 64.63,-88.99l56.44 -375.64c-46.72,8.31 -143.79,54.08 -181.17,81.05 -27.42,19.79 -129.85,85.97 -143.01,69.02z"/>
   <path class="fil11" d="M1888.87 1872.72c200.49,-119.81 386.54,-245.63 576.34,-362.37 -17.82,-47.04 4.22,-10.78 -29.5,-42.89l-254.69 -187.49 18.13 -36.93c-76.89,45.95 -124.72,228.28 -162.35,311.45 -47.79,105.61 -105.04,211.82 -147.94,318.24z"/>
   <path class="fil12" d="M1152.92 1055.98c76.26,3.4 86.96,18.47 82.1,97.94 14.78,61.7 -9.23,75.17 87.28,85.95 0.97,-1.61 1.29,-6.8 1.56,-5.41l4.74 -10.75c46.05,-57.09 67.34,18.78 160.95,61.27 44.2,-124.21 72.58,-361.22 53.6,-501.62 -37.55,43.12 34.03,-49.75 -13.8,24.28l-10.52 15.43c-1.47,2.01 -4.14,4.95 -5.55,6.81l-13.53 16.48c-0.57,0.87 -2.25,4.41 -2.65,5.09l-31.49 -18.03c-41.55,-49.39 -28.45,-59.47 -20.85,-80.88 -19.67,41.88 -101.58,104.41 -147.05,138.39 -19.07,14.25 -135.99,145.1 -144.77,165.04z"/>
   <path class="fil13" d="M1543.14 783.35c18.98,140.4 -9.4,377.41 -53.6,501.62 -93.61,-42.49 -114.9,-118.36 -160.95,-61.27l-4.74 10.75c-0.27,-1.39 -0.59,3.8 -1.56,5.41 -96.5,-10.78 -72.5,-24.25 -87.28,-85.95 -64.15,55.9 -226.48,33.86 -333.56,33.27l-58.17 130.7c128.96,4.37 282.52,-39.49 274.1,97.47 70.94,-3.25 143.1,-22.51 203.49,-23.21 54.09,-0.63 137.91,6.76 206.49,7.63 23.1,-39.84 27.51,-735.66 9.35,-779.91l6.43 163.46z"/>
   <path class="fil14" d="M3900.52 1057.34c20.3,318.59 -244.54,264.86 -288.51,224.28 -65.76,-60.68 -25.11,-149.26 40.83,-177.95 58.71,-25.55 175.53,-37 247.68,-46.33zm-356.81 -110.05c90.98,-0.61 43.19,-2.26 86.5,-66.74 23.16,-34.48 57.36,-53.15 109.73,-56.57 117.68,-7.68 178.23,57.26 155.1,168.99 -39,58.67 -404.18,-14.97 -379.68,234.39 15.01,152.78 197.55,174.67 302.72,116.8 56.64,-31.17 42.47,-44.32 84.89,-74.53 16.96,48.03 -10.3,66.81 37.58,87.71 30.38,-21.27 17.7,7.1 23.35,-52.57 10.9,-115.09 17.29,-424.7 -51,-487.07 -119.39,-109.04 -398.27,-36.77 -369.18,129.59z"/>
   <path class="fil15" d="M2975.92 1360.45c55.64,-9.29 46.2,38.87 42.68,-144.31 -3.05,-159.25 -31.32,-367.34 145.73,-390.79 259.15,-34.32 165.97,335.99 181.91,534.07l60.15 1.09c6.39,-117.67 15.65,-423.06 -27.73,-509.61 -63.94,-127.58 -293.7,-103.62 -359.45,20.81l-0.71 -337.61c-81.93,2.5 -65.44,-27.98 -65.43,168.38l1.18 614.12c8.87,54.22 -10.82,18.88 21.67,43.85z"/>
   <polygon class="fil0" points="6040.11,1369.25 6212.73,1368.27 6212.7,748.39 6041.31,748.93 "/>
   <path class="fil16" d="M1117.39 1415.37c-65.08,83.87 -234.83,-1.74 -293.95,54.79 -45.21,43.23 -14.89,99.22 30.71,111.75 16.52,4.54 453.74,19.09 494.75,-13.64l178.46 -168.47c-68.58,-0.87 -152.4,-8.26 -206.49,-7.63 -60.39,0.7 -132.55,19.96 -203.49,23.21z"/>
   <path class="fil5" d="M9631.64 975.53c-78.82,33.78 -122.1,116.09 -94.76,231.91 21.47,90.95 94.71,161.08 201.96,120.17 179.55,-68.5 106.06,-443.48 -107.2,-352.08z"/>
   <path class="fil17" d="M4075.78 802.72c15.35,48.49 -30.88,31.14 63.52,34.1l270.65 -2.79c-42.61,114.85 -355.12,396.84 -339.52,528l373.04 3.26c73.82,-1.24 65.6,8.15 62.23,-61.05l-361.02 1.95c14.03,-35.65 62.45,-93.61 87.14,-124.81l187.71 -250.57c76.3,-104.04 82.46,-70.19 74.2,-154.93l-378.09 1.15c-41.61,8.28 -17.3,1.5 -39.85,25.69z"/>
   <path class="fil18" d="M10291.97 999.63c-82.85,-104.11 -156.88,-112.37 -253.58,-12.32 -16.1,-62.01 17.99,-39.97 -34.55,-56.87 -36.58,36.38 -17.6,400.28 -14.93,409.31 10.16,34.36 -4.95,6.04 14.93,29.83 36.79,-15.67 20.06,0.5 29.4,-40.17l1.97 -200.36c2.03,-83.48 16.25,-157.9 107.47,-164.02 133.66,-8.97 112.61,163.89 108.04,288.89 -5.7,155.58 -5.84,102.07 28.72,115.79 40.72,-29.6 15,-134.03 18.84,-241.89 3.05,-85.84 27.45,-156.33 107.43,-163.48 168.9,-15.1 102.56,203.19 115.4,352.98 5.39,62.83 -9.24,30.66 21.41,51.93 34.77,-15.48 13.69,5.34 25.58,-29.41 2.94,-8.58 3.81,-37.12 3.85,-47.3 0.32,-79.68 5.96,-247.54 -17.13,-301.9 -19.76,-46.54 -64.2,-74.92 -135.41,-71.15 -83.34,4.42 -89.05,37.88 -127.44,80.13z"/>
   <path class="fil19" d="M2199.15 1243.03l-18.13 36.93 254.69 187.49c33.72,32.11 11.68,-4.15 29.5,42.89 28.7,-19.22 38.54,-32.05 45.3,-82.09 5.06,-37.46 2.56,-85.91 2.52,-124.53 -0.13,-115.98 4.73,-151.61 -77.42,-192.88 -46.16,15.37 -87.41,34.5 -130.4,59.34 -22.08,12.76 -39.63,22.11 -64.63,36.25 -35.31,19.98 -33,10.51 -41.43,36.58z"/>
   <path class="fil20" d="M2152.08 757.64c10.71,9.86 4.51,5.49 23.05,19.43l179.2 110.2c44.54,25.72 33.76,8.28 56.62,44.35 32.4,-17.74 5.41,0.62 39.24,-28.47 3.8,-3.26 30.34,-29.45 31.56,-31.02 38.33,-49.16 36.67,-292.94 7.1,-339.27 -51.2,0.2 -40.17,14.86 -85.42,48.23 -28.53,21.03 -47.2,34.34 -79.26,58.15 -52.44,38.94 -105,90.98 -172.08,118.4z"/>
   <path class="fil21" d="M209.5 1457.91l-0.21 115.8c372.7,11.57 519.7,70.81 473.33,-119.51 -110.06,-36.33 -345.92,-0.61 -473.11,3.71z"/>
   <path class="fil5" d="M3900.52 1057.34c-72.15,9.33 -188.96,20.78 -247.68,46.33 -65.93,28.69 -106.58,117.27 -40.83,177.95 43.97,40.58 308.81,94.32 288.51,-224.28z"/>
   <path class="fil18" d="M9631.64 975.53c213.26,-91.41 286.75,283.58 107.2,352.08 -107.25,40.91 -180.49,-29.21 -201.96,-120.17 -27.34,-115.83 15.94,-198.13 94.76,-231.91zm-28.86 -39.17c-229.87,95.27 -132.32,540.13 160.91,428.59 236.47,-89.96 129.05,-548.77 -160.91,-428.59z"/>
   <path class="fil17" d="M9402.52 1224.67c-67.17,21.83 -50.27,136.07 -198.82,104.79 -150.6,-31.71 -166.97,-339.94 12.31,-364.69 47.88,-6.61 95.23,6.11 117.92,31.87 47.36,53.77 -6.32,65.95 86.8,69.87 -30.49,-212.3 -388.32,-211.6 -386,87.05 2.87,368.86 449.43,202.33 367.79,71.11z"/>
   <path class="fil15" d="M4889.8 880.98c-12.6,-132.12 20.98,-104.14 -34.32,-104.66 -62.93,-0.59 -19.78,1.51 -29.01,24.32l-3.92 479.12c-0.28,91.43 16.46,76.64 32.5,84.41 33.88,-16.36 37.74,-1.75 34.31,-122.92 -6.75,-238.56 -29.48,-366.13 157.42,-409.63 65.71,-15.3 39.79,21.43 48.15,-30.53 14.81,-92.14 -200.52,7.16 -205.12,79.89z"/>
   <path class="fil22" d="M4609.76 927.99l1.99 430.33 61.05 2.85c1.4,-90.56 17,-523.52 -5.67,-584l-50.13 -1.34c-15.2,40.1 -7.19,104.1 -7.24,152.16z"/>
   <path class="fil23" d="M708.45 287.91c62.19,-0.04 134.93,4.25 126.78,-72.46 -7.41,-69.81 -84.57,-57.36 -151.84,-57.49 -72.52,-0.13 -167.54,-14.66 -149.71,78.55 13.67,71.45 110.72,51.64 174.76,51.39z"/>
   <path class="fil24" d="M681 1816.11c76.94,2.4 263.63,47.56 277.77,-51.35 16.7,-116.74 -174.29,-75.12 -255.83,-73.04 3.47,68.97 15.89,87.61 -21.94,124.39z"/>
   <path class="fil21" d="M14.48 408.89c-19.32,34.67 -14.09,81.04 -13.05,117.99 71.32,2.22 221.07,34.68 219.54,-61.32 -1.57,-98.38 -151.04,-71.1 -206.5,-56.67z"/>
   <path class="fil25" d="M7071.48 1240.27c140.1,42.89 195.81,-19.18 196.79,-155.36 -113.04,16.97 -265.57,26.24 -196.79,155.36z"/>
   <polygon class="fil26" points="6039,656.77 6206.55,660.56 6211.83,502.77 6040.41,505.99 "/>
  </g>
 </g>
</svg>
